<svg version="1.0" xmlns="http://www.w3.org/2000/svg"
 width="100.000000pt" height="100.000000pt" viewBox="0 0 100.000000 100.000000"
 preserveAspectRatio="xMidYMid meet">
<g transform="translate(0.000000,100.000000) scale(0.100000,-0.100000)"
fill="#000000" stroke="none">
<path d="M346 875 c3 -11 13 -26 22 -32 9 -7 12 -13 6 -13 -5 -1 7 -9 26 -20
27 -14 36 -15 40 -5 4 11 7 10 17 -1 11 -10 8 -15 -14 -26 -27 -13 -45 -48
-24 -48 6 0 8 6 5 14 -3 9 4 15 23 19 33 6 44 0 23 -13 -13 -8 -12 -10 3 -10
26 0 32 3 29 17 -3 13 31 13 44 0 13 -13 39 -7 51 12 10 16 9 20 -3 25 -24 9
-27 7 -14 -9 10 -12 10 -15 -3 -15 -8 0 -17 7 -21 15 -3 8 -12 12 -19 9 -8 -3
-22 2 -31 11 -19 19 -22 6 -3 -14 10 -11 9 -12 -3 -6 -8 5 -21 15 -30 22 -8 7
-19 13 -24 12 -5 0 -13 5 -18 13 -7 10 -8 8 -4 -5 3 -11 2 -16 -4 -12 -6 3
-10 13 -10 21 0 8 -4 13 -9 9 -5 -3 -13 0 -17 6 -5 8 -3 9 6 4 10 -6 12 -4 7
9 -4 10 -3 15 3 11 6 -4 22 -8 36 -11 18 -3 23 -1 18 7 -4 8 -3 9 5 5 9 -6 9
-11 0 -22 -10 -12 -4 -14 45 -13 31 1 59 6 62 11 3 4 14 8 25 8 22 0 26 -28 4
-36 -14 -6 -12 -24 3 -24 9 0 92 75 92 83 0 11 -135 -5 -157 -19 -29 -18 -29
-18 -52 7 -15 17 -33 22 -80 23 -56 1 -60 0 -55 -19z"/>
<path d="M274 839 c5 -55 -3 -109 -16 -109 -6 0 -7 7 -4 16 4 12 2 15 -9 10
-8 -3 -15 -1 -15 4 0 6 -4 10 -10 10 -5 0 -10 -19 -10 -42 0 -23 3 -39 6 -35
5 5 44 -58 44 -71 0 -3 -11 -2 -24 0 -33 7 -57 -8 -36 -22 8 -5 15 -17 15 -27
0 -19 25 -22 58 -8 31 13 18 -13 -18 -34 -37 -22 -47 -42 -16 -34 13 3 20 -2
24 -17 3 -13 10 -19 17 -15 6 3 10 3 9 -2 -1 -4 -1 -15 0 -23 1 -13 2 -13 12
0 8 11 10 11 7 1 -2 -7 -19 -19 -38 -25 -26 -9 -34 -16 -32 -31 2 -11 4 -28 5
-37 3 -22 107 -119 120 -111 6 3 7 1 3 -5 -8 -13 33 -36 82 -47 39 -8 114 3
107 16 -4 5 1 6 10 3 10 -4 38 11 76 41 42 33 66 45 81 42 17 -5 19 -2 15 21
-3 15 -1 35 5 45 14 28 -9 50 -48 45 -21 -2 -30 0 -27 8 2 6 -2 14 -10 17 -10
4 -13 -1 -9 -19 2 -13 8 -24 13 -24 5 0 2 -11 -7 -25 -9 -14 -12 -25 -6 -25 5
0 12 -7 16 -15 5 -13 2 -14 -15 -4 -17 8 -23 7 -34 -8 -7 -10 -16 -16 -19 -13
-5 6 24 73 34 78 3 1 5 47 5 101 -1 99 -12 135 -38 125 -7 -2 -26 -6 -44 -8
-29 -3 -31 -1 -22 15 11 21 24 24 34 9 3 -5 13 -10 21 -10 11 0 12 4 5 19 -8
15 -7 21 7 27 9 4 23 6 30 5 6 -1 12 3 12 9 0 6 -5 8 -12 4 -7 -4 -8 -3 -4 5
4 6 11 9 16 6 5 -3 11 4 15 15 3 11 11 20 16 20 6 0 7 -5 3 -12 -4 -6 -3 -8 4
-4 6 3 13 2 17 -4 3 -5 -5 -14 -19 -20 -33 -12 -36 -44 -3 -35 12 4 28 13 36
20 12 12 12 17 -3 39 -9 14 -24 26 -34 26 -13 0 -14 2 -3 9 8 5 10 14 6 21 -6
9 -4 11 5 5 10 -6 12 -4 7 7 -4 11 2 18 19 22 14 4 22 11 19 17 -4 5 -1 17 6
25 14 16 12 19 -17 28 -28 8 -68 -45 -61 -82 3 -15 -1 -31 -9 -39 -12 -12 -14
-10 -15 14 0 26 -1 26 -12 9 -7 -10 -20 -26 -29 -34 -15 -13 -15 -18 -2 -38
17 -26 5 -39 -26 -29 -12 4 -20 15 -19 28 l0 22 11 -22 c6 -13 15 -23 21 -23
5 0 4 7 -3 15 -7 9 -10 25 -5 42 5 21 4 24 -7 16 -7 -6 -44 -10 -82 -9 -61 2
-71 5 -79 24 -6 12 -16 22 -24 22 -7 0 -13 8 -13 18 0 23 -52 100 -58 84 -3
-10 -7 -10 -18 -1 -12 10 -14 5 -10 -32z m71 -58 c3 -5 -2 -16 -10 -25 -10 -9
-11 -17 -5 -21 6 -4 8 -11 5 -16 -9 -14 23 -11 37 5 11 11 16 10 30 -7 10 -11
18 -27 17 -36 0 -12 -3 -11 -9 4 -8 19 -9 19 -9 -3 -1 -16 6 -26 19 -29 19 -5
24 -18 22 -52 -1 -22 25 -42 44 -34 12 4 15 3 10 -5 -4 -7 -2 -12 3 -12 6 0
11 5 11 10 0 6 25 10 56 10 l57 0 -7 -37 c-3 -21 -6 -48 -6 -60 0 -21 -1 -21
-32 -5 -34 16 -168 26 -168 12 0 -4 -9 -10 -20 -13 -17 -4 -20 0 -20 27 0 18
5 37 12 44 9 9 9 12 0 12 -7 0 -12 5 -12 10 0 6 12 10 26 10 29 0 53 -24 55
-55 1 -17 2 -16 8 4 5 18 1 31 -16 49 -12 14 -20 28 -17 33 13 21 -29 20 -51
-1 -21 -20 -24 -30 -20 -73 5 -49 5 -50 -14 -33 -12 11 -17 25 -13 38 4 15 2
19 -7 13 -7 -4 -11 -18 -8 -31 2 -13 3 -24 2 -24 -13 0 -66 29 -54 30 9 0 24
9 34 20 23 26 4 56 -25 40 -24 -13 -40 -13 -20 0 13 8 12 10 -2 10 -10 0 -18
4 -18 8 0 5 7 9 15 9 8 0 15 -4 15 -9 0 -4 4 -8 10 -8 5 0 7 7 4 15 -4 8 -1
15 5 15 6 0 11 -4 11 -10 0 -5 8 -10 18 -10 14 0 15 -2 2 -10 -17 -11 -10 -13
14 -4 21 8 21 24 0 24 -22 0 -74 51 -74 72 0 9 -4 20 -10 23 -5 3 -10 13 -10
21 0 8 5 12 10 9 6 -4 8 -11 5 -16 -4 -5 -2 -9 2 -9 15 0 33 23 34 45 0 11 3
14 6 8 7 -19 21 -16 28 7 7 21 20 26 30 11z m141 -117 c-24 -27 -27 -27 -43
-12 -13 14 -14 20 -4 32 14 17 52 26 65 15 4 -4 -3 -20 -18 -35z m34 -4 c-9
-5 -9 -9 -1 -14 15 -10 14 -22 -5 -40 -22 -22 -44 -20 -44 4 0 24 53 87 58 70
3 -7 -1 -16 -8 -20z m-175 -242 c3 -30 9 -67 15 -82 8 -21 7 -27 -2 -24 -7 3
-13 11 -13 19 0 8 -4 17 -8 20 -4 3 -9 27 -11 54 -1 27 -8 51 -14 53 -7 2 -12
8 -12 13 0 6 5 7 10 4 6 -3 10 -1 10 6 0 9 3 10 10 3 6 -6 13 -36 15 -66z
m134 24 c2 45 18 41 25 -7 4 -24 12 -47 17 -51 6 -3 7 4 3 20 -11 46 -9 59 9
61 18 3 23 -6 10 -19 -5 -4 -8 -39 -8 -77 0 -50 4 -69 13 -69 10 0 12 11 6 45
-3 25 -3 60 0 79 6 34 8 34 36 24 32 -11 34 -17 24 -67 -10 -48 -109 -153
-103 -108 1 6 1 21 0 32 -1 18 -2 19 -12 3 -7 -12 -6 -24 1 -37 14 -26 14 -26
-14 -29 -16 -1 -27 5 -30 16 -9 27 -10 97 -2 111 10 16 -3 93 -15 85 -5 -3 -9
-1 -9 5 0 5 8 11 18 13 12 3 19 -5 23 -27 6 -29 6 -30 8 -3z m-51 -24 c5 -24
5 -50 1 -59 -9 -17 -5 -68 6 -106 6 -19 15 -23 47 -23 31 0 44 6 65 30 24 29
43 39 43 22 0 -5 -11 -15 -25 -22 -14 -7 -23 -16 -20 -18 3 -3 23 9 46 27 38
31 69 35 69 10 0 -8 -4 -9 -13 0 -11 8 -19 5 -36 -13 -13 -14 -36 -30 -52 -36
-16 -7 -26 -16 -23 -21 3 -5 0 -9 -5 -9 -6 0 -11 4 -11 8 0 16 -40 11 -41 -6
-1 -15 -2 -15 -6 -1 -5 21 -64 34 -75 17 -5 -9 -8 -7 -8 6 0 22 -47 69 -61 61
-5 -4 -9 1 -9 9 0 27 19 27 36 1 9 -14 31 -33 48 -42 l31 -15 -35 30 c-19 17
-32 33 -28 38 5 4 17 -1 28 -11 12 -11 20 -13 20 -6 0 7 -12 22 -26 34 -34 30
-46 104 -19 124 31 22 43 15 53 -29z m272 -62 c-4 -19 -5 -37 -2 -40 3 -4 0
-6 -6 -6 -6 0 -14 5 -17 10 -3 6 -1 10 5 10 8 0 10 9 6 24 -5 22 0 36 15 36 4
0 3 -16 -1 -34z m-380 -18 c0 -7 -5 -20 -10 -28 -8 -13 -10 -12 -10 3 0 10 -4
15 -10 12 -11 -7 -14 8 -3 18 11 12 33 8 33 -5z"/>
<path d="M272 673 c2 -10 10 -17 17 -15 7 1 19 -2 26 -8 15 -12 65 -3 65 11 0
6 -8 5 -19 0 -14 -8 -20 -7 -25 4 -4 11 -13 14 -32 9 -19 -5 -25 -4 -20 5 4 6
2 11 -4 11 -6 0 -10 -8 -8 -17z"/>
<path d="M475 401 c-3 -6 -4 -15 -1 -20 3 -5 1 -22 -4 -37 -6 -17 -6 -42 -2
-59 7 -26 10 -19 15 44 7 73 5 92 -8 72z"/>
<path d="M702 758 c-17 -17 -15 -31 3 -24 10 4 15 -1 15 -15 0 -11 7 -22 15
-25 13 -5 13 -10 0 -33 -7 -15 -21 -33 -29 -40 -9 -7 -14 -16 -12 -20 3 -4 1
-13 -5 -21 -7 -13 -9 -12 -9 3 0 10 -8 17 -20 17 -25 0 -26 -16 -1 -30 23 -12
51 -3 51 16 0 8 5 14 10 14 6 0 10 -5 10 -11 0 -6 9 -8 22 -3 20 6 21 5 10 -9
-8 -9 -11 -20 -9 -24 3 -5 -13 -8 -36 -6 l-42 2 35 -30 c24 -21 29 -29 17 -29
-11 0 -17 -8 -17 -22 0 -12 -8 -30 -17 -41 -14 -16 -15 -19 -3 -15 8 2 21 17
28 32 10 20 19 26 33 23 30 -8 23 19 -13 47 l-33 26 39 -7 c35 -5 38 -4 32 14
-4 14 -1 23 9 27 24 9 8 26 -24 26 -15 0 -30 3 -34 6 -9 10 35 75 48 70 8 -3
12 10 13 40 0 24 -4 44 -9 44 -5 0 -9 -4 -9 -10 0 -5 -7 -7 -16 -3 -14 5 -16
2 -10 -20 4 -16 2 -27 -4 -27 -5 0 -10 13 -10 29 0 34 -12 45 -28 29z"/>
<path d="M660 535 c-1 -5 -1 -20 -1 -32 1 -11 -3 -24 -8 -28 -16 -9 -13 -25 4
-25 8 0 15 5 15 10 0 6 5 10 11 10 6 0 9 -7 5 -15 -3 -8 -1 -15 4 -15 6 0 10
9 10 20 0 11 -4 20 -9 20 -4 0 -13 15 -19 33 -5 17 -11 28 -12 22z"/>
<path d="M260 244 c0 -24 -3 -26 -30 -20 -16 3 -30 3 -30 1 0 -13 76 -73 84
-65 4 4 24 -3 43 -16 20 -13 54 -29 77 -35 54 -15 165 -5 213 19 21 11 44 17
51 15 7 -3 30 11 52 31 40 36 41 40 8 37 -10 -1 -19 3 -19 8 -1 6 -3 16 -4 21
-1 6 -3 13 -4 16 0 3 -9 -3 -18 -15 -10 -11 -44 -34 -77 -51 -45 -23 -71 -30
-116 -30 -74 0 -97 9 -171 66 l-59 45 0 -27z m82 -50 c40 -28 51 -42 20 -25
-11 6 -23 6 -28 1 -12 -12 -59 24 -50 39 10 16 15 14 58 -15z m321 -7 c3 -7
-3 -19 -13 -25 -14 -9 -21 -8 -32 5 -11 15 -11 16 4 10 10 -3 17 -3 17 1 -4
24 15 31 24 9z"/>
</g>
</svg>