                    <?xml version="1.0" standalone="no"?>
<!DOCTYPE svg PUBLIC "-//W3C//DTD SVG 20010904//EN"
 "http://www.w3.org/TR/2001/REC-SVG-20010904/DTD/svg10.dtd">
<svg version="1.0" xmlns="http://www.w3.org/2000/svg"
 width="100.000000pt" height="89.000000pt" viewBox="0 0 100.000000 89.000000"
 preserveAspectRatio="xMidYMid meet">
<metadata>
Created by potrace 1.10, written by Peter Selinger 2001-2011
</metadata>
<g transform="translate(0.000000,89.000000) scale(0.100000,-0.100000)"
fill="#000000" stroke="none">
<path d="M652 867 c-12 -13 -22 -32 -23 -43 0 -10 -22 -75 -48 -144 -27 -69
-46 -127 -43 -130 2 -3 7 1 9 8 3 7 20 36 39 64 23 33 31 54 25 62 -10 12 24
103 45 121 11 9 30 85 21 85 -2 0 -13 -10 -25 -23z"/>
<path d="M310 875 c0 -17 56 -155 68 -167 7 -7 12 -19 12 -28 0 -16 70 -134
76 -128 7 8 -53 146 -104 238 -28 52 -52 91 -52 85z"/>
<path d="M114 831 c-36 -16 -42 -35 -8 -26 53 14 96 10 111 -11 17 -23 13 -56
-6 -62 -9 -3 -12 0 -9 10 4 8 2 21 -3 29 -7 12 -9 11 -9 -2 0 -10 -11 -19 -29
-22 -25 -5 -31 -13 -38 -44 -4 -21 -6 -42 -5 -46 1 -4 3 -37 3 -72 1 -53 -4
-76 -30 -130 -32 -65 -53 -80 -69 -47 -12 22 -5 41 25 73 22 24 24 32 18 83
-9 71 -25 73 -25 4 0 -36 -7 -67 -22 -95 -18 -34 -20 -47 -12 -70 8 -22 16
-28 39 -28 17 0 37 -4 45 -9 12 -7 13 -6 3 5 -7 7 -13 19 -13 26 0 23 17 14
30 -16 10 -25 9 -35 -3 -61 -14 -27 -14 -35 -1 -65 8 -19 14 -43 14 -53 0 -11
8 -26 17 -33 15 -12 16 -12 9 6 -4 11 -10 45 -13 76 -5 49 -3 58 20 84 25 30
25 30 46 11 13 -12 19 -26 16 -37 -4 -11 1 -20 12 -23 10 -4 31 -18 47 -32 27
-24 28 -26 10 -39 -11 -8 -33 -15 -50 -15 -17 0 -44 -10 -60 -23 -23 -18 -38
-21 -81 -19 -51 4 -53 3 -53 -22 0 -16 7 -29 18 -33 9 -3 41 -17 70 -30 30
-13 95 -34 146 -45 83 -19 97 -20 139 -7 44 12 69 33 28 22 -10 -3 -22 1 -26
7 -6 9 1 11 24 8 49 -7 32 14 -25 30 -27 8 -60 15 -74 16 -29 3 -39 30 -15 40
9 3 49 -4 88 -16 75 -22 90 -21 204 13 34 11 45 11 55 1 10 -10 10 -15 -2 -22
-8 -5 -11 -12 -7 -16 4 -4 13 -2 19 4 7 7 43 12 87 12 51 1 82 6 95 15 27 20
48 19 44 -2 -2 -10 -11 -17 -21 -17 -9 1 -17 -4 -17 -11 0 -22 -119 -32 -132
-12 -6 9 -8 9 -8 0 0 -18 -50 -16 -70 2 -18 16 -80 11 -80 -6 0 -5 -20 -9 -45
-9 -32 0 -45 -4 -45 -14 0 -8 -5 -16 -12 -18 -7 -3 -8 -9 -3 -18 6 -10 11 -8
18 11 l10 24 6 -30 c6 -25 8 -27 14 -11 5 12 13 16 23 12 22 -9 72 23 54 34
-7 4 7 7 32 6 25 -2 50 -6 56 -10 18 -11 14 -26 -7 -26 -10 0 -22 -7 -25 -16
-5 -14 0 -15 41 -9 61 9 142 39 188 70 20 14 43 25 52 25 10 0 13 6 9 16 -3 9
-6 19 -6 24 0 4 -16 11 -35 14 -32 6 -35 9 -29 34 4 15 13 41 20 59 11 28 10
37 -3 63 -12 26 -13 36 -3 61 13 30 30 39 30 16 0 -7 -6 -19 -12 -26 -11 -11
-10 -12 2 -5 8 5 28 9 45 9 23 0 31 6 39 28 8 23 6 36 -12 70 -15 28 -22 59
-22 95 0 69 -16 67 -25 -4 -6 -51 -4 -59 18 -83 30 -32 37 -51 25 -73 -16 -33
-37 -18 -69 47 -26 54 -31 77 -30 130 0 35 2 68 3 72 1 4 -1 25 -5 46 -7 31
-13 39 -38 44 -18 3 -29 12 -29 22 0 14 -2 14 -10 1 -6 -9 -5 -17 2 -21 7 -4
6 -9 -2 -14 -19 -12 -32 10 -24 39 8 32 47 50 84 40 14 -4 33 -8 43 -10 17 -1
17 0 2 15 -10 10 -33 16 -66 16 -67 0 -94 -29 -85 -92 3 -23 11 -51 18 -62 10
-17 8 -23 -13 -40 l-24 -21 -31 35 c-38 42 -46 43 -65 8 -7 -16 -29 -47 -48
-70 -38 -49 -35 -53 17 -18 23 16 37 33 37 47 0 34 25 34 38 -1 6 -17 18 -31
27 -31 12 -1 11 -3 -3 -11 -11 -6 -29 -9 -42 -7 -12 3 -31 -1 -41 -9 -17 -12
-16 -13 8 -13 21 0 29 -8 42 -39 8 -23 24 -42 36 -46 32 -10 35 1 6 20 -17 11
-26 26 -26 42 0 23 3 25 30 20 17 -4 45 -24 66 -47 26 -29 42 -39 55 -35 24 8
24 0 0 -24 -14 -14 -21 -16 -25 -8 -2 7 -2 -3 1 -22 4 -24 3 -32 -5 -27 -7 4
-10 2 -6 -7 3 -8 -2 -20 -11 -27 -12 -10 -18 -10 -30 0 -23 19 -18 56 10 78
20 16 22 21 10 26 -9 3 -15 0 -15 -8 0 -8 -7 -16 -15 -20 -17 -6 -20 -58 -5
-87 9 -16 4 -26 -29 -59 l-39 -40 -40 21 -40 22 24 45 c13 25 24 50 24 56 0 8
-47 11 -150 11 -82 0 -150 -3 -150 -7 0 -4 10 -29 23 -54 18 -39 19 -48 8 -52
-8 -3 -24 -15 -36 -28 l-22 -23 -42 43 c-37 38 -41 47 -32 64 16 30 14 82 -4
88 -8 4 -15 12 -15 20 0 8 -6 11 -15 8 -12 -5 -10 -10 10 -26 28 -22 33 -59
10 -78 -12 -10 -18 -10 -30 0 -9 7 -14 19 -11 27 4 9 1 11 -6 7 -8 -5 -9 3 -5
27 3 19 3 29 1 22 -4 -8 -11 -6 -25 8 -24 24 -24 32 0 24 13 -4 29 6 55 35 21
23 49 43 66 47 27 5 30 3 30 -20 0 -14 -9 -31 -22 -40 -25 -16 -21 -31 6 -21
10 4 24 24 33 45 12 31 20 39 41 39 25 0 25 1 6 14 -10 8 -21 11 -24 7 -3 -4
-21 -3 -40 2 -19 6 -28 12 -20 14 9 2 21 17 27 34 13 34 38 35 38 1 0 -13 15
-31 39 -47 49 -33 55 -27 18 16 -16 19 -37 49 -47 67 -11 17 -24 32 -30 32 -5
0 -23 -16 -38 -35 -28 -35 -28 -35 -52 -18 -13 10 -25 23 -25 29 0 18 29 25
51 14 21 -12 26 -1 8 17 -6 6 -18 9 -25 6 -11 -4 -13 4 -8 39 5 34 2 48 -13
66 -20 26 -84 38 -119 23z m76 -155 c0 -14 11 -38 25 -54 14 -17 25 -34 25
-38 0 -13 -67 -64 -74 -57 -8 9 -8 158 1 166 13 14 23 6 23 -17z m648 -56 c4
-101 0 -107 -43 -73 -19 15 -35 32 -35 37 0 4 11 21 25 38 14 16 25 41 25 55
0 15 5 23 13 21 8 -3 13 -30 15 -78z m-348 -260 c0 -13 13 -29 36 -42 23 -13
33 -26 30 -35 -4 -8 -9 -26 -12 -39 -5 -20 -12 -24 -45 -24 l-38 0 5 71 c4 54
2 74 -8 80 -9 6 -7 9 10 9 16 0 22 -6 22 -20z m85 0 c4 -6 11 -7 17 -4 6 4 5
-3 -2 -15 -14 -28 -42 -24 -46 7 -4 23 19 32 31 12z m274 -26 c21 -27 26 -66
15 -123 -8 -36 -21 -39 -58 -10 -18 14 -41 21 -67 21 -21 -1 -39 4 -39 9 0 5
20 22 45 37 28 17 43 32 39 41 -4 14 22 51 37 51 4 0 17 -12 28 -26z m-400
-34 c-2 -56 -19 -70 -19 -16 0 19 -6 37 -12 39 -10 4 -9 8 2 16 26 18 30 12
29 -39z m-79 -82 c-24 -54 -37 -61 -138 -74 -48 -6 -51 10 -5 19 16 3 42 11
58 18 17 7 33 12 37 11 3 -1 18 14 33 33 14 19 28 35 30 35 2 0 -4 -19 -15
-42z m87 -5 l41 -48 24 23 c14 12 28 19 32 15 4 -5 6 -3 4 2 -4 14 30 60 38
52 4 -4 18 -24 30 -44 15 -24 23 -32 24 -20 0 9 -5 17 -11 17 -5 0 -7 4 -4 10
4 6 20 3 43 -9 21 -11 53 -21 71 -24 42 -7 62 -24 41 -37 -9 -6 -17 -5 -22 3
-6 9 -10 9 -16 -1 -7 -10 -18 -9 -57 2 -27 8 -52 13 -57 10 -5 -3 -15 0 -23 6
-12 10 -16 9 -21 -4 -5 -13 -9 -14 -20 -5 -11 9 -14 7 -14 -10 0 -11 -4 -21
-9 -21 -15 0 -23 18 -11 25 5 3 10 12 10 18 0 7 -11 -1 -25 -18 l-25 -30 -26
30 c-20 24 -23 25 -14 7 14 -28 10 -35 -14 -26 -10 4 -15 13 -11 22 5 13 3 13
-11 2 -10 -9 -18 -10 -22 -3 -4 5 -14 9 -23 8 -20 -3 -14 34 7 42 8 3 12 9 9
13 -6 10 4 40 14 40 3 0 25 -21 48 -47z m-354 -90 c-1 -6 34 -9 84 -7 82 2
133 -7 133 -23 0 -5 -32 -9 -70 -9 -39 -1 -70 3 -70 7 0 11 -23 7 -32 -6 -4
-6 -8 -2 -8 8 0 10 -5 15 -10 12 -16 -10 -50 5 -50 22 0 8 6 13 13 10 6 -2 11
-9 10 -14z m245 -45 c-2 -7 4 -11 12 -9 25 6 46 9 32 4 -11 -4 -10 -9 4 -24
13 -15 14 -19 3 -20 -27 -2 -44 3 -52 17 -4 8 -15 14 -23 14 -8 0 -12 -4 -9
-10 3 -6 -1 -7 -10 -4 -13 6 -11 10 12 25 33 22 34 22 31 7z"/>
<path d="M468 771 l-35 -30 23 -87 c33 -123 34 -122 27 4 -6 112 -6 112 17
112 23 0 23 0 17 -112 -6 -119 -2 -119 32 2 l20 75 -33 33 -33 34 -35 -31z"/>
<path d="M722 698 c-7 -7 -12 -19 -12 -27 0 -13 2 -14 9 -2 5 7 13 11 19 7 6
-4 10 2 9 14 -1 23 -8 25 -25 8z"/>
<path d="M340 470 l0 -60 159 0 c179 0 169 -4 162 77 l-3 43 -159 0 -159 0 0
-60z m87 25 c11 -8 30 -27 42 -44 l21 -29 -41 2 c-43 2 -56 13 -86 70 l-15 29
29 -7 c15 -4 38 -14 50 -21z m216 7 c-10 -41 -47 -72 -92 -77 l-44 -6 25 33
c24 31 80 68 105 68 6 0 9 -8 6 -18z m-106 1 c-12 -3 -16 -11 -12 -22 3 -11
-2 -24 -12 -32 -11 -9 -14 -10 -9 -1 5 8 1 12 -12 12 -15 0 -20 6 -18 25 1 22
5 25 41 24 22 -1 32 -3 22 -6z"/>
<path d="M386 487 c6 -17 63 -51 71 -43 4 3 2 6 -3 6 -5 0 -22 11 -38 25 -33
29 -37 30 -30 12z"/>
</g>
</svg>