<svg version="1.0" xmlns="http://www.w3.org/2000/svg"
 width="100.000000pt" height="67.000000pt" viewBox="0 0 100.000000 67.000000"
 preserveAspectRatio="xMidYMid meet">

<g transform="translate(0.000000,67.000000) scale(0.100000,-0.100000)"
fill="#000000" stroke="none">
<path d="M494 616 c-3 -21 -5 -38 -3 -39 2 -2 20 -16 39 -32 l35 -28 -28 7
c-18 4 -26 3 -23 -3 3 -5 0 -11 -6 -14 -7 -2 3 -3 22 -2 35 2 100 33 100 48 0
5 -21 7 -47 5 l-47 -3 -13 44 c-17 58 -20 60 -29 17z"/>
<path d="M465 560 c-4 -6 -23 -7 -46 -4 -21 4 -39 4 -39 1 0 -8 72 -57 82 -57
5 0 8 10 8 23 0 13 5 28 12 35 9 9 9 12 1 12 -7 0 -15 -5 -18 -10z"/>
<path d="M220 535 c0 -2 16 -20 37 -40 35 -34 35 -35 12 -35 -14 0 -29 4 -34
9 -6 4 -25 13 -43 19 -26 9 -33 9 -29 -1 2 -6 14 -14 28 -15 24 -4 73 -48 75
-67 1 -21 24 -64 38 -72 13 -7 14 -14 3 -48 l-12 -40 -6 40 c-5 39 -5 39 -13
12 -6 -20 -4 -33 7 -45 8 -9 15 -35 15 -57 -1 -45 9 -85 21 -85 4 0 13 11 19
24 9 21 8 23 -9 19 -15 -4 -19 0 -19 20 0 14 5 29 11 32 16 11 40 -27 35 -56
-4 -21 0 -28 17 -33 12 -3 23 -1 25 4 2 6 10 6 22 0 12 -7 17 -16 13 -27 -5
-13 -2 -15 15 -11 15 4 22 2 22 -8 0 -22 58 -17 118 11 53 25 64 38 36 49 -8
3 -13 2 -10 -3 6 -9 -44 -35 -52 -26 -3 3 5 19 17 36 13 17 20 33 18 36 -3 3
-1 17 5 32 18 44 26 101 15 101 -6 0 -7 18 -4 45 4 27 3 45 -3 45 -10 0 -14
-25 -10 -67 1 -13 -4 -23 -10 -23 -8 0 -11 19 -9 58 3 44 1 56 -10 54 -9 -2
-11 3 -8 13 8 20 -9 65 -25 65 -10 0 -10 -2 1 -9 9 -6 2 -10 -23 -13 -21 -2
-40 0 -42 4 -3 5 -11 4 -18 -1 -8 -7 -16 -7 -22 -1 -12 12 -54 -15 -54 -36 0
-17 16 -19 26 -3 3 6 17 9 30 6 17 -3 24 0 25 12 0 10 2 12 6 4 2 -7 20 -13
39 -13 22 0 36 -5 39 -15 3 -8 8 -23 12 -33 10 -27 11 -82 1 -88 -8 -5 -12 22
-8 64 1 12 -3 22 -9 22 -6 0 -11 -20 -11 -45 0 -25 -4 -45 -9 -45 -5 0 -7 20
-5 45 1 25 -2 45 -7 45 -9 0 -13 -26 -9 -67 1 -13 -3 -23 -9 -23 -5 0 -11 28
-13 62 -2 49 -6 62 -20 64 -10 1 -18 -4 -18 -11 0 -8 -8 -16 -19 -20 -26 -8
-39 -141 -17 -184 15 -27 14 -29 -6 -34 -28 -8 -51 11 -44 37 3 11 0 26 -6 33
-8 10 -6 18 7 33 18 20 39 104 24 94 -5 -3 -20 4 -34 14 -17 14 -21 22 -13 25
10 4 10 6 1 6 -7 1 -13 7 -13 14 0 6 -20 31 -43 55 -40 38 -57 50 -57 37z
m247 -175 c-1 -65 -14 -65 -19 0 -2 33 1 50 8 50 7 0 11 -19 11 -50z m-138 9
c-11 -7 -11 -9 3 -9 25 0 32 -18 14 -36 -13 -13 -16 -13 -16 -1 0 8 -7 20 -15
27 -8 7 -15 21 -15 32 0 16 3 17 21 7 17 -9 19 -13 8 -20z m104 -51 c-9 -17
-19 -7 -17 20 2 58 7 66 14 27 4 -22 6 -43 3 -47z m95 -71 c2 -15 7 -25 12
-22 4 3 11 -7 15 -22 5 -22 1 -32 -20 -50 -28 -24 -48 -21 -75 12 -10 12 -10
21 -1 41 l11 25 31 -30 c33 -33 52 -40 43 -16 -4 8 -10 13 -14 10 -13 -8 -40
25 -40 49 0 45 33 47 38 3z m-84 -98 c-3 -5 2 -9 11 -9 8 0 18 -7 21 -15 10
-25 41 -17 74 18 l31 32 -23 -42 c-17 -30 -30 -42 -50 -45 -19 -3 -28 0 -28 9
0 7 -4 13 -9 13 -18 0 -63 49 -56 60 5 8 11 8 21 -1 7 -6 11 -15 8 -20z"/>
<path d="M743 502 c-36 -33 -58 -66 -55 -82 0 -3 -13 -15 -29 -25 -34 -24 -38
-61 -10 -96 21 -26 19 -81 -4 -109 -20 -26 -29 -44 -17 -36 6 3 22 -5 36 -19
14 -14 28 -21 31 -15 4 6 11 8 16 4 5 -3 7 -10 3 -15 -7 -13 -72 -39 -101 -41
-13 -2 -23 -6 -23 -10 0 -15 91 1 125 22 40 25 42 31 16 47 -15 10 -18 22 -16
62 1 27 -2 67 -8 88 -9 34 -7 42 17 77 14 21 26 43 26 48 0 23 43 68 64 68 13
0 30 8 37 17 12 15 12 16 -6 9 -11 -5 -30 -11 -43 -13 -12 -3 -25 -9 -28 -14
-3 -5 -17 -9 -31 -9 -26 0 -26 0 12 35 22 19 37 37 34 40 -3 3 -24 -12 -46
-33z m-51 -156 c-12 -16 -23 -21 -32 -16 -16 10 -4 30 18 30 14 0 14 2 3 9
-11 7 -10 11 5 19 27 15 31 -11 6 -42z m8 -177 c0 -28 -2 -29 -22 -18 -33 17
-33 17 -13 39 22 25 35 17 35 -21z"/>
<path d="M596 475 c4 -8 1 -22 -6 -30 -8 -10 -9 -15 -2 -15 15 0 35 38 27 50
-10 16 -25 11 -19 -5z"/>
<path d="M720 298 c0 -13 5 -30 10 -38 7 -11 10 -7 10 17 0 17 -4 35 -10 38
-6 3 -10 -4 -10 -17z"/>
<path d="M277 123 c-13 -12 -7 -33 8 -33 8 0 15 -4 15 -9 0 -11 53 -28 93 -30
40 -1 33 7 -18 20 -25 6 -42 15 -39 20 3 5 -2 6 -11 3 -11 -5 -18 0 -22 15 -5
21 -14 26 -26 14z"/>
<path d="M450 52 c0 -12 25 -22 55 -22 31 0 55 10 55 22 0 7 -4 7 -12 1 -14
-11 -40 -11 -75 1 -13 4 -23 3 -23 -2z"/>
</g>
</svg>
                                                                                    
     