<svg version="1.0" xmlns="http://www.w3.org/2000/svg"
 width="300.000000pt" height="300.000000pt" viewBox="0 0 300.000000 300.000000"
 preserveAspectRatio="xMidYMid meet">
<g transform="translate(0.000000,300.000000) scale(0.100000,-0.100000)"
fill="#000000" stroke="none">
<path d="M850 2980 c19 -13 30 -13 30 0 0 6 -10 10 -22 10 -19 0 -20 -2 -8
-10z"/>
<path d="M1740 2980 c0 -4 9 -10 20 -13 11 -3 20 -2 20 3 0 4 -9 10 -20 13
-11 3 -20 2 -20 -3z"/>
<path d="M1760 2840 c0 -11 7 -20 15 -20 13 0 14 4 5 20 -6 11 -13 20 -15 20
-3 0 -5 -9 -5 -20z"/>
<path d="M1206 2826 c3 -8 12 -17 20 -20 12 -4 12 -2 4 14 -12 23 -32 27 -24
6z"/>
<path d="M1423 2780 c-13 -5 -23 -12 -23 -15 0 -9 16 -5 36 10 22 16 19 18
-13 5z"/>
<path d="M1982 2781 c4 -13 18 -16 19 -4 0 4 -5 9 -11 12 -7 2 -11 -2 -8 -8z"/>
<path d="M1530 2745 c0 -8 5 -15 10 -15 6 0 10 7 10 15 0 8 -4 15 -10 15 -5 0
-10 -7 -10 -15z"/>
<path d="M2324 2691 c-5 -5 -18 -11 -29 -14 -20 -5 -20 -5 0 -6 22 -1 52 15
44 23 -3 3 -10 2 -15 -3z"/>
<path d="M1865 2620 c-8 -13 9 -20 24 -11 10 6 9 10 -3 14 -8 3 -18 2 -21 -3z"/>
<path d="M2196 2584 c-5 -12 -2 -15 10 -10 8 3 18 6 20 6 2 0 4 5 4 10 0 16
-27 11 -34 -6z"/>
<path d="M1539 2579 c-11 -7 -9 -9 7 -9 11 0 26 -6 33 -12 10 -11 11 -10 6 4
-8 21 -28 29 -46 17z"/>
<path d="M2245 2539 c7 -11 35 -12 35 -1 0 4 -9 8 -20 9 -11 1 -18 -2 -15 -8z"/>
<path d="M1470 2388 c-18 -61 -50 -122 -109 -205 -42 -59 -62 -78 -109 -102
-131 -66 -236 -170 -296 -294 -35 -71 -66 -198 -66 -269 0 -77 25 -200 55
-265 l24 -53 -45 0 c-55 0 -79 -12 -99 -49 -13 -25 -13 -42 1 -142 12 -98 18
-117 41 -141 l27 -28 164 0 c155 0 169 -2 236 -27 64 -25 84 -27 206 -28 125
0 140 2 201 28 62 26 73 27 230 27 224 0 232 6 245 206 l7 110 -28 22 c-17 14
-42 22 -65 22 l-37 0 23 48 c35 69 47 152 41 277 -4 90 -10 123 -34 185 -60
156 -180 292 -320 365 -46 23 -58 37 -99 108 -70 122 -155 247 -169 247 -6 0
-18 -19 -25 -42z m106 -125 c108 -174 192 -336 225 -433 28 -85 31 -104 27
-185 -3 -69 -10 -101 -28 -135 -51 -99 -109 -149 -197 -168 l-43 -10 0 52 c1
36 8 62 25 91 17 28 25 34 25 21 0 -11 2 -17 5 -14 3 3 1 36 -5 74 -12 71 -53
169 -92 217 l-23 29 -37 -54 c-49 -71 -78 -136 -78 -176 0 -39 27 -101 47
-109 7 -3 13 -20 13 -39 0 -44 -18 -44 -101 -1 -79 41 -131 106 -160 200 -41
131 -1 266 122 422 85 107 157 214 183 273 10 23 22 42 25 42 4 0 34 -44 67
-97z m-301 -203 c-4 -6 -32 -29 -63 -52 -177 -128 -259 -267 -269 -459 -6
-109 11 -209 52 -296 20 -43 21 -53 9 -53 -19 0 -62 96 -80 180 -30 140 -8
298 58 423 40 76 154 193 228 235 57 33 76 39 65 22z m542 -41 c120 -78 231
-233 268 -375 19 -75 19 -223 0 -299 -22 -85 -51 -145 -70 -145 -14 0 -14 3
-1 28 7 15 23 58 35 96 26 84 28 233 6 320 -35 134 -137 276 -256 357 -101 69
-84 86 18 18z m75 -137 c124 -135 181 -316 147 -472 -5 -25 -11 -57 -13 -71
-3 -14 -16 -51 -30 -82 l-25 -57 -186 0 c-109 0 -194 4 -206 10 -15 8 -19 22
-19 60 l0 50 38 0 c81 1 178 74 228 172 13 26 29 80 35 120 10 65 9 82 -9 157
-12 46 -33 108 -47 138 -14 31 -25 60 -25 65 0 16 54 -28 112 -90z m-725 6
c-26 -63 -31 -86 -31 -163 -1 -81 2 -97 30 -155 17 -36 46 -83 63 -103 40 -45
150 -101 186 -95 l25 5 0 -79 c0 -75 -1 -79 -26 -88 -14 -6 -102 -10 -195 -10
l-170 0 -30 65 c-73 155 -72 336 2 485 35 69 148 210 169 210 4 0 -6 -33 -23
-72z m373 -202 c43 -86 50 -152 21 -201 -18 -32 -21 -52 -21 -161 0 -74 -4
-124 -10 -124 -6 0 -11 76 -12 193 -3 163 -5 192 -18 192 -13 0 -15 -29 -18
-192 -1 -117 -6 -193 -12 -193 -6 0 -10 53 -10 135 0 128 -1 136 -26 172 -37
54 -30 112 22 192 21 32 41 58 44 56 4 -2 21 -33 40 -69z m589 -540 c14 -17
-4 -233 -21 -253 -8 -10 -142 -13 -608 -13 -514 0 -599 2 -610 15 -7 8 -16 63
-21 122 -7 93 -6 110 8 125 15 17 53 18 628 18 513 0 614 -2 624 -14z m-462
-313 c6 -18 -58 -27 -182 -27 -70 0 -121 5 -140 14 l-30 13 35 6 c68 12 313 7
317 -6z"/>
<path d="M1353 2002 c-75 -113 -113 -226 -112 -337 0 -33 6 -73 14 -90 13 -28
13 -23 9 55 -7 108 17 206 81 327 24 47 44 88 42 89 -1 2 -17 -18 -34 -44z"/>
<path d="M1287 1988 c-64 -94 -90 -164 -95 -254 -4 -72 -1 -89 21 -138 14 -31
28 -56 31 -56 3 0 -3 19 -14 43 -51 116 -25 264 70 402 18 26 30 48 28 51 -3
2 -21 -20 -41 -48z"/>
<path d="M1700 1973 c58 -119 83 -210 84 -308 1 -83 -2 -96 -31 -155 l-32 -65
30 35 c39 46 53 99 52 191 -2 81 -31 188 -77 277 -38 73 -61 95 -26 25z"/>
<path d="M1650 1985 c0 -8 6 -34 14 -57 53 -163 67 -277 52 -403 l-6 -50 15
33 c39 85 30 198 -31 385 -34 103 -44 124 -44 92z"/>
<path d="M926 1097 c-23 -17 -24 -66 -2 -83 18 -13 105 -29 113 -21 3 3 2 15
-2 26 -4 15 -18 23 -46 27 -23 4 -38 11 -36 18 4 12 32 13 60 1 14 -6 17 -2
17 19 0 24 -3 26 -43 26 -24 0 -51 -6 -61 -13z"/>
<path d="M1054 1088 c3 -13 6 -40 6 -60 0 -31 4 -38 20 -38 11 0 20 5 20 10 0
6 11 10 25 10 14 0 25 -4 25 -10 0 -5 9 -10 20 -10 15 0 20 7 20 29 0 16 3 43
6 60 6 30 5 31 -26 31 -31 0 -32 -1 -26 -35 6 -33 5 -35 -19 -35 -16 0 -25 6
-25 15 0 8 5 15 10 15 6 0 10 9 10 20 0 16 -7 20 -36 20 -33 0 -36 -2 -30 -22z"/>
<path d="M1222 1050 l-2 -60 40 0 c22 0 40 5 40 10 0 6 -9 10 -20 10 -11 0
-20 5 -20 10 0 6 9 10 20 10 11 0 20 5 20 10 0 6 -9 10 -20 10 -11 0 -20 5
-20 10 0 6 14 10 30 10 23 0 30 4 30 20 0 17 -7 20 -48 20 l-48 0 -2 -60z"/>
<path d="M1340 1084 c6 -14 10 -41 10 -60 0 -26 4 -34 18 -34 15 0 17 7 14 41
-4 36 -2 40 14 37 14 -2 20 -13 22 -41 3 -29 7 -37 23 -37 16 0 19 7 19 40 0
55 -26 80 -85 80 -44 0 -44 0 -35 -26z"/>
<path d="M1478 1085 c-16 -35 3 -75 36 -75 14 0 28 -4 31 -10 9 -15 45 -12 45
4 0 20 -28 46 -48 46 -9 0 -24 5 -32 11 -11 8 -4 9 28 7 38 -3 42 -1 42 19 0
21 -5 23 -45 23 -39 0 -47 -4 -57 -25z"/>
<path d="M1604 1079 c3 -17 6 -44 6 -60 0 -27 3 -29 40 -29 22 0 40 5 40 10 0
6 -9 10 -20 10 -11 0 -20 5 -20 10 0 6 7 10 15 10 8 0 15 5 15 10 0 6 -9 10
-20 10 -11 0 -20 5 -20 10 0 6 14 10 30 10 23 0 30 4 30 20 0 17 -7 20 -51 20
l-51 0 6 -31z"/>
<path d="M1724 1088 c3 -13 6 -40 6 -60 0 -31 4 -38 19 -38 14 0 21 8 23 28
l4 27 14 -27 c10 -21 21 -28 42 -28 27 0 28 2 28 44 0 24 3 51 6 60 5 13 -1
16 -25 16 -32 0 -41 -16 -20 -37 6 -6 9 -19 7 -29 -3 -15 -9 -9 -28 24 -19 34
-29 42 -53 42 -26 0 -29 -3 -23 -22z"/>
<path d="M1880 1084 c-14 -35 -13 -46 6 -72 11 -15 25 -22 50 -22 44 0 43 12
-1 33 -19 9 -35 23 -35 31 0 16 27 29 42 20 12 -7 29 16 22 28 -3 4 -21 8 -40
8 -28 0 -36 -5 -44 -26z"/>
<path d="M1984 1088 c3 -13 6 -40 6 -60 0 -38 0 -38 40 -38 22 0 40 5 40 10 0
6 -9 10 -20 10 -11 0 -20 5 -20 10 0 6 7 10 15 10 8 0 15 6 15 14 0 9 -7 12
-20 9 -11 -3 -20 0 -20 6 0 6 16 11 35 11 28 0 35 4 35 20 0 18 -7 20 -56 20
-54 0 -56 -1 -50 -22z"/>
<path d="M920 948 c0 -25 4 -28 34 -28 32 0 86 32 86 50 0 5 -27 8 -60 7 -58
-2 -60 -3 -60 -29z"/>
<path d="M1079 972 c-22 -2 -25 -7 -21 -28 6 -34 48 -34 54 1 6 29 3 32 -33
27z"/>
<path d="M1140 948 c0 -26 3 -29 26 -26 21 2 28 9 30 29 2 22 -1 26 -27 26
-25 0 -29 -4 -29 -29z"/>
<path d="M1217 974 c-2 -3 -2 -16 1 -30 4 -24 8 -25 56 -22 47 4 51 7 54 31 3
26 2 26 -52 26 -30 -1 -57 -3 -59 -5z"/>
<path d="M1342 953 c3 -24 8 -28 40 -31 27 -2 43 3 57 17 33 33 25 41 -40 41
-60 0 -60 0 -57 -27z"/>
<path d="M1475 969 c-2 -3 -1 -15 2 -27 4 -17 13 -22 38 -22 35 0 69 24 62 43
-3 11 -96 17 -102 6z"/>
<path d="M1600 948 c0 -27 2 -28 50 -28 36 0 50 4 50 14 0 8 2 21 5 28 4 11
-7 14 -50 14 -53 -1 -55 -2 -55 -28z"/>
<path d="M1726 973 c-2 -2 -1 -15 2 -28 6 -31 42 -35 42 -5 0 11 -1 23 -2 27
-3 7 -35 12 -42 6z"/>
<path d="M1832 973 c-18 -4 -22 -9 -16 -26 9 -29 10 -30 29 -24 8 4 15 18 15
32 0 14 -1 24 -2 24 -2 -1 -13 -4 -26 -6z"/>
<path d="M2028 973 c-43 -4 -48 -7 -48 -28 0 -22 4 -23 55 -23 54 1 55 1 55
29 0 16 -3 28 -7 27 -5 -1 -29 -3 -55 -5z"/>
<path d="M1870 957 c0 -38 71 -52 90 -18 15 30 14 31 -40 31 -34 0 -50 -4 -50
-13z"/>
<path d="M822 2363 c-6 -2 -10 -9 -6 -14 8 -14 21 -11 28 6 6 15 1 17 -22 8z"/>
<path d="M1010 2315 c0 -8 5 -15 10 -15 6 0 10 7 10 15 0 8 -4 15 -10 15 -5 0
-10 -7 -10 -15z"/>
<path d="M1845 2309 c-4 -6 -5 -13 -2 -16 7 -7 27 6 27 18 0 12 -17 12 -25 -2z"/>
<path d="M1010 2247 c0 -7 5 -18 12 -25 9 -9 9 -12 -1 -12 -7 0 -9 -5 -5 -11
4 -7 9 -8 17 0 7 7 6 15 -2 25 -7 8 -10 20 -6 26 3 5 1 10 -4 10 -6 0 -11 -6
-11 -13z"/>
<path d="M1740 2231 c0 -14 5 -18 20 -14 16 4 18 8 9 19 -16 20 -29 17 -29 -5z"/>
<path d="M1851 2201 c0 -8 -8 -23 -18 -33 -9 -10 -11 -18 -6 -18 17 0 35 28
30 47 -3 11 -5 12 -6 4z"/>
<path d="M772 2101 c2 -7 7 -12 11 -12 12 1 9 15 -3 20 -7 2 -11 -2 -8 -8z"/>
<path d="M1096 2095 c-3 -9 0 -15 9 -15 16 0 20 16 6 24 -5 3 -11 -1 -15 -9z"/>
<path d="M2021 2012 c-17 -31 -13 -40 5 -14 9 13 14 26 11 29 -3 2 -10 -4 -16
-15z"/>
<path d="M838 1968 c-7 -18 1 -38 15 -38 8 0 8 3 0 11 -6 6 -9 18 -6 25 3 8 3
14 0 14 -3 0 -7 -6 -9 -12z"/>
<path d="M2231 1906 c-10 -12 -8 -13 8 -9 12 3 21 9 21 14 0 14 -16 11 -29 -5z"/>
<path d="M2292 1810 c-10 -16 -10 -20 2 -20 7 0 16 9 19 20 3 11 2 20 -2 20
-3 0 -12 -9 -19 -20z"/>
<path d="M672 1500 c13 -20 28 -27 28 -12 0 4 -9 13 -20 20 -19 12 -20 11 -8
-8z"/>
<path d="M2291 1481 c-7 -5 -11 -15 -9 -22 3 -10 8 -7 17 9 13 24 12 26 -8 13z"/>
<path d="M2207 1374 c-8 -8 1 -24 14 -24 5 0 9 7 9 15 0 15 -12 20 -23 9z"/>
<path d="M2680 1190 c0 -5 7 -10 15 -10 8 0 15 5 15 10 0 6 -7 10 -15 10 -8 0
-15 -4 -15 -10z"/>
<path d="M2564 1094 c-12 -13 -20 -25 -17 -28 3 -3 15 6 25 20 26 32 20 37 -8
8z"/>
<path d="M545 1050 c3 -5 16 -10 28 -10 18 0 19 2 7 10 -20 13 -43 13 -35 0z"/>
<path d="M2960 968 c0 -8 7 -15 15 -15 18 0 15 19 -3 25 -7 2 -12 -3 -12 -10z"/>
<path d="M2144 864 l-31 -34 -151 0 c-143 0 -154 -1 -224 -29 -158 -63 -292
-66 -446 -9 -83 30 -94 32 -240 33 -142 2 -155 3 -183 24 -28 21 -30 21 -20 3
23 -44 51 -51 200 -51 119 -1 148 -4 179 -20 80 -41 152 -54 282 -54 111 0
133 3 200 28 41 15 79 31 85 36 5 5 76 9 158 9 166 0 194 9 215 70 6 16 10 30
9 29 -1 0 -16 -16 -33 -35z"/>
<path d="M1673 683 c-18 -7 -16 -23 2 -23 8 0 15 7 15 15 0 8 -1 15 -2 14 -2
0 -9 -3 -15 -6z"/>
<path d="M1060 670 c0 -5 7 -10 15 -10 8 0 15 5 15 10 0 6 -7 10 -15 10 -8 0
-15 -4 -15 -10z"/>
<path d="M1744 629 c-7 -12 19 -21 47 -17 19 3 18 4 -10 15 -18 6 -33 7 -37 2z"/>
<path d="M1481 589 c5 -11 14 -17 20 -14 15 10 10 22 -11 28 -17 4 -18 2 -9
-14z"/>
<path d="M2685 520 c3 -5 13 -10 21 -10 8 0 12 5 9 10 -3 6 -13 10 -21 10 -8
0 -12 -4 -9 -10z"/>
<path d="M1372 498 c-14 -14 -16 -28 -3 -28 5 0 11 9 14 20 6 23 5 24 -11 8z"/>
<path d="M1260 455 c12 -15 30 -12 30 6 0 5 -10 9 -21 9 -18 0 -19 -2 -9 -15z"/>
<path d="M2594 425 c-10 -8 -14 -14 -9 -15 15 0 40 18 34 24 -3 3 -14 -1 -25
-9z"/>
<path d="M2160 395 c7 -8 20 -15 28 -15 13 0 12 3 -4 15 -25 19 -40 19 -24 0z"/>
<path d="M1080 371 c0 -11 26 -22 34 -14 12 12 5 23 -14 23 -11 0 -20 -4 -20
-9z"/>
<path d="M2040 270 c0 -5 7 -10 15 -10 8 0 15 5 15 10 0 6 -7 10 -15 10 -8 0
-15 -4 -15 -10z"/>
<path d="M2000 75 c14 -7 27 -11 30 -9 6 7 -22 24 -40 23 -9 0 -5 -6 10 -14z"/>
</g>
</svg>
